<svg xmlns="http://www.w3.org/2000/svg" viewBox="0 0 100 120">
  <g fill="none" stroke="oklch(0.28 0.035 238)" stroke-width="6" stroke-linecap="round" stroke-linejoin="round">
    <circle cx="50" cy="12" r="6" />
    <line x1="50" y1="18" x2="50" y2="28" />
    <path d="M14 54 C21 36, 42 27, 58 29 C74 31, 82 39, 87 45 L99 52 L87 61 C81 68, 60 78, 39 78 C25 78, 17 68, 14 54 Z" />
    <circle cx="25" cy="48" r="3" fill="oklch(0.28 0.035 238)" stroke="none" />
    <path d="M13 57 Q7 60 12 64" />
    <line x1="50" y1="78" x2="50" y2="104" />
    <line x1="34" y1="90" x2="66" y2="90" />
    <path d="M50 104 C34 104, 22 96, 20 82" />
    <path d="M50 104 C66 104, 78 96, 80 82" />
  </g>
</svg>
